<svg id="Layer_1" data-name="Layer 1" xmlns="http://www.w3.org/2000/svg" xmlns:xlink="http://www.w3.org/1999/xlink" viewBox="0 0 1020.09 291.26"><defs><style>.cls-1{fill:#fff;}.cls-2{fill:url(#linear-gradient);}</style><linearGradient id="linear-gradient" x1="742.24" y1="139.79" x2="777.91" y2="41.79" gradientUnits="userSpaceOnUse"><stop offset="0" stop-color="#ffc900"/><stop offset="0.41" stop-color="#ff7500"/><stop offset="0.52" stop-color="#ff6e00"/><stop offset="0.69" stop-color="#ff5a00"/><stop offset="0.89" stop-color="#ff3a00"/><stop offset="1" stop-color="#ff2400"/></linearGradient></defs><path class="cls-1" d="M89.86,57.38V41.08H54.52V68.23H80.11v20H54.52v30.51H72.77v20H7.08v-20H23.85V41.08H7.08v-20H112.41V57.38Z"/><path class="cls-1" d="M164.92,41.08v77.63H183v20H116.54v-20h17.71V41.08H116.54v-20H183v20Z"/><path class="cls-1" d="M297.71,53.17q0,10.77-5,18.1T277.42,83.21l19,35.5H311.6v20H275.78L249.26,87.27H235.84v31.44h14.74v20H189v-20h16.15V41.08H189v-20h67.1q19.51,0,30.55,8.24T297.71,53.17Zm-32,1.33q0-6.72-4.29-10.07t-11.7-3.35H235.84V68.39h11.23Q265.72,68.39,265.72,54.5Z"/><path class="cls-1" d="M398.2,58.32V41.08H361.76v27h29.42V87.89H361.76v30.82H398.2v-17.4h22.55v37.37H317.06v-20h14.2V41.08h-14.2v-20H420.75V58.32Z"/><path class="cls-1" d="M476.69,41.08V66.59h32.14V41.08h-12v-20h56.41v20H538.56v77.63h14.67v20H496.82v-20h12v-32H476.69v32H489v20H432.3v-20H447V41.08H432.3v-20H489v20Z"/><path class="cls-1" d="M562.75,79.54q0-17.87,8.19-31.52A56,56,0,0,1,594,26.76q14.85-7.6,34.21-7.61t34.13,7.61A55.61,55.61,0,0,1,685.28,48.1q8.16,13.74,8.15,31.44,0,18-8.15,31.68a55.17,55.17,0,0,1-23,21.3q-14.85,7.56-34,7.57-18.81,0-33.75-7.57a56.63,56.63,0,0,1-23.32-21.3Q562.74,97.49,562.75,79.54Zm97.92-.15a47.42,47.42,0,0,0-3.91-19.47,33.17,33.17,0,0,0-11.27-14A31.35,31.35,0,0,0,611,46a33.57,33.57,0,0,0-11.28,14,47,47,0,0,0-3.94,19.47,48.65,48.65,0,0,0,4,20.17,33.37,33.37,0,0,0,11.35,14,28.85,28.85,0,0,0,16.93,5.11,29.91,29.91,0,0,0,17.36-5.11,32.22,32.22,0,0,0,11.35-14A50,50,0,0,0,660.67,79.39Z"/><path class="cls-1" d="M745.47,41.08V96q0,9.75,1.84,15c1.22,3.52,2.92,5.93,5.11,7.26a16.32,16.32,0,0,0,8.58,2q8.12,0,12-5.58T777,95.07v-54H765.6v-20h47v20H798.22v59.61q0,20.6-9.33,30t-31.09,9.4q-15.52,0-24.77-4.14a26.51,26.51,0,0,1-13.65-13.89Q715,112.31,715,95.38V41.08H701.08v-20h56.1v20Z"/><path class="cls-1" d="M871.71,30.86V21.1h20V56.68h-20q-1.25-8.58-5.58-12.91a15.11,15.11,0,0,0-11.19-4.33,12.87,12.87,0,0,0-8.27,2.73A8.42,8.42,0,0,0,843.24,49a9.62,9.62,0,0,0,2.18,6.32A18.48,18.48,0,0,0,851,59.84q3.44,1.83,10.3,4.88l4.76,2q15.52,6.7,23.44,15.76t7.92,22.62q0,16.16-9.28,25.56t-25,9.4q-15.3,0-23.8-11.47v10.06h-20V98.74h20q.63,10.37,5.35,15.8T857.51,120a12.41,12.41,0,0,0,9.09-3.67,12,12,0,0,0,3.71-8.89,13.75,13.75,0,0,0-4.25-9.72q-4.26-4.41-14.48-8.85-17.4-7.65-25.24-16.47a29.63,29.63,0,0,1-7.84-20.28,33.07,33.07,0,0,1,4.14-16.39A30.34,30.34,0,0,1,834.07,24a31,31,0,0,1,15.87-4.25,27.46,27.46,0,0,1,12.49,2.81A24,24,0,0,1,871.71,30.86Z"/><path class="cls-1" d="M987.73,58.32V41.08H951.29v27h29.42V87.89H951.29v30.82h36.44v-17.4h22.55v37.37H906.59v-20h14.2V41.08h-14.2v-20h103.69V58.32Z"/><path class="cls-1" d="M70.06,176.76V159.45H31.25v30.7H64.7v12.92H31.25v34.07H44.44v12.91H2.54V237.14H15.59V159.45h-13V146.54h80.3v30.22Z"/><path class="cls-1" d="M117.59,159.45V212.2q0,14,5.33,20.4t15.62,6.46q10.44,0,15.91-6.39t5.46-20.33V159.45H147.82V146.54h40.52v12.91H175.43v54.33q0,18.56-9.38,28.27t-27.51,9.72q-18.27,0-27.44-9.66t-9.17-29.22V159.45H89.16V146.54h40.66v12.91Z"/><path class="cls-1" d="M275.17,159.45H260.4V146.54h42.45v12.91H287.67v91.7H271.59l-49.66-88.47v74.46h14.84v12.91H194.39V237.14h14.77V159.45H194.39V146.54h35.3L275.17,227Z"/><path class="cls-1" d="M410.07,196.75q0,26.58-16,39.94t-47.7,13.36H307.65V237.14h13.88V159.45H307.65V146.54H347q31.8,0,47.43,12T410.07,196.75Zm-17,.68q0-13.19-4.63-21.5t-14.7-12.39q-10.06-4.09-26.55-4.09h-10v77.69H347q23.91,0,35-9.59T393,197.43Z"/><path class="cls-1" d="M499.36,173.67q0,10-5.63,16.72T478,199.7l18.27,37.44h12.64v12.91H485.69l-22.87-48.22H448.33v35.31h13.19v12.91H418.65V237.14h14V159.45h-14V146.54h43q20,0,28.85,6.52T499.36,173.67Zm-16.14-.28q0-7.21-4.53-10.58t-14.36-3.36h-16v29.4h15q10.1,0,15-3.51T483.22,173.39Z"/><path class="cls-1" d="M582.06,159l28,78.1h11.54v12.91h-40.8V237.14h13.53l-8-23.5H548.75l-8,23.5h13.12v12.91H512.76V237.14h12.5L553.15,159H540.71v-12.5H594.5V159Zm-14.15,0h-.48L552.8,201.49h29.4Z"/><path class="cls-1" d="M655.29,159.45v77.69h11.26v12.91H628.43V237.14h11.19V159.45H628.43V146.54h38.12v12.91Z"/><path class="cls-1" d="M729.54,153v-7.07h12.64v31.39H729.54v-7.15q-8-12.09-22-12.09-8.52,0-13,3.44T690,171.4q0,6.18,4.3,9.41t13.15,5.5l12.16,3.22q11.61,3.09,17.82,8.18t8.11,10.78a40.25,40.25,0,0,1,1.89,12.71q0,14.09-8.8,22.32T715,251.77q-14.07,0-25.62-10.31v8.59H676.51V212.34h12.91v9.13q9.29,17,24.18,17,8.73,0,13.53-4.5t4.81-12.67q0-11.13-15.66-15.46l-12.91-3.64q-13.95-4-20.61-10.78t-6.66-17.93q0-13.67,8.07-21.19t22.29-7.52Q718.82,144.82,729.54,153Z"/><path class="cls-1" d="M827.76,176.76V159.45h-44.3v30.84H822V203.2H783.46v33.94h44.3V218.25h12.78v31.8H754.47V237.14H767.8V159.45H754.47V146.54h86.07v30.22Z"/><path class="cls-1" d="M927.91,173.67q0,10-5.63,16.72t-15.73,9.31l18.27,37.44h12.64v12.91H914.24l-22.87-48.22h-14.5v35.31h13.19v12.91H847.2V237.14h14V159.45h-14V146.54h43q20,0,28.85,6.52T927.91,173.67Zm-16.14-.28q0-7.21-4.54-10.58t-14.35-3.36h-16v29.4h15q10.1,0,15-3.51T911.77,173.39Z"/><path class="cls-1" d="M997.42,153v-7.07h12.64v31.39H997.42v-7.15q-8-12.09-22-12.09-8.52,0-13.05,3.44t-4.53,9.89q0,6.18,4.29,9.41t13.15,5.5l12.16,3.22q11.61,3.09,17.83,8.18t8.1,10.78a40.25,40.25,0,0,1,1.89,12.71q0,14.09-8.79,22.32t-23.56,8.25q-14.08,0-25.62-10.31v8.59H944.39V212.34h12.92v9.13q9.27,17,24.18,17,8.71,0,13.53-4.5t4.81-12.67q0-11.13-15.67-15.46l-12.91-3.64q-13.95-4-20.6-10.78T944,173.53q0-13.67,8.07-21.19t22.29-7.52A37.29,37.29,0,0,1,997.42,153Z"/><path class="cls-2" d="M786.83,90c-11-22,11-30.23,11.42-29.62-1.26-1.81-13.6-7.82-29.25-.41a19.94,19.94,0,0,0,.13-7.24c-1.15-7-5.73-19.3-30-24.14a20.86,20.86,0,0,1,8.62,9.54,14.49,14.49,0,0,1-.19,11.2c-3,6.55-9.58,11.11-15.08,15.11-6.79,4.93-12,9.71-15.59,16.85a44.27,44.27,0,0,0,2.32,43.18,27,27,0,0,0,6.71,7.61,34.41,34.41,0,0,0,9.05,5.1,41.09,41.09,0,0,0,5.68,1.53,17.83,17.83,0,0,0,3.66.58c-1.58-1.21-26.22-19.18-9.15-44.5A59.51,59.51,0,0,1,745,83.79c-16.51,24.28,6.74,44.16,7.58,45.68a30.71,30.71,0,0,1,8.9-26.91c29.39,20.93,3.93,37.76,1.25,37.48,2.74.29,7.4-.47,10-1.11,3.3-.79,6.46-1.48,9.3-3,9.12-5,14.81-12.59,15.67-22.11C798.58,104.09,791.07,98.45,786.83,90Z"/></svg>