<svg id="Layer_1" data-name="Layer 1" xmlns="http://www.w3.org/2000/svg" viewBox="0 0 1023.71 170.38"><defs><style>.cls-1{fill:#fff;}</style></defs><path class="cls-1" d="M19.48,126.08A72.73,72.73,0,0,1,8.89,87.41,72.73,72.73,0,0,1,19.48,48.74q10.59-17.33,30.6-30.07l2.37,3.85Q39.25,33,34.15,42.82T29,66.37v42.08q0,13.77,5.11,23.55t18.3,20.3l-2.37,3.85Q30.07,143.42,19.48,126.08Z"/><path class="cls-1" d="M85.33,118.23a28.55,28.55,0,0,0-4.66-4.37,7.85,7.85,0,0,0-4.52-1.26,4.77,4.77,0,0,0-3.41,1.26,4.55,4.55,0,0,0-1.33,3.48v9.48H65.48v-7A51.13,51.13,0,0,1,66.59,109a41.35,41.35,0,0,1,5.26-12q4.16-6.9,12.74-15a131.14,131.14,0,0,0,16.75-19.19,32.85,32.85,0,0,0,5.92-18.89q0-8.3-3.41-13.92T92.3,24.3a13,13,0,0,0-9.41,3.63,11.44,11.44,0,0,0-3.78,8.52q0,5.92,4.15,8.88a23.06,23.06,0,0,1,5,4.67,9.3,9.3,0,0,1,1.71,5.71,8.17,8.17,0,0,1-2.82,6.37A10.25,10.25,0,0,1,80,64.59,15.23,15.23,0,0,1,69,60q-4.67-4.59-4.66-12.29a26.22,26.22,0,0,1,4.22-14.45A30,30,0,0,1,80.08,22.82,34.28,34.28,0,0,1,96.3,19q16.29,0,24.74,7.49t8.44,19.77a24.33,24.33,0,0,1-5.26,15.26,52.57,52.57,0,0,1-12.74,11.78q-7.47,5-18.89,11a57.26,57.26,0,0,0-12,9,28.33,28.33,0,0,0-7.7,13.18l.59.3a18.62,18.62,0,0,1,12-4.3,34.7,34.7,0,0,1,6.45.74,46.92,46.92,0,0,1,6.29,1.63,44.63,44.63,0,0,0,13.49,2.37,12.87,12.87,0,0,0,8.89-3.18,9.76,9.76,0,0,0,3.55-7.48,77.8,77.8,0,0,0-.74-9.93H128a83.21,83.21,0,0,1,.89,11.56,44.15,44.15,0,0,1-2.44,14.59,26.5,26.5,0,0,1-7.93,11.7q-5.47,4.67-13.93,4.67Q95.11,129.19,85.33,118.23Z"/><path class="cls-1" d="M165,120.89a55.26,55.26,0,0,1-12.44-21.11,77.79,77.79,0,0,1,0-51.41A55.33,55.33,0,0,1,165,27.26Q173,19,183.71,19t18.74,8.3a55.33,55.33,0,0,1,12.44,21.11,77.79,77.79,0,0,1,0,51.41,55.26,55.26,0,0,1-12.44,21.11q-8.08,8.31-18.74,8.3T165,120.89Zm26.67-2.44a34,34,0,0,0,2.45-13V42.67a34,34,0,0,0-2.45-13q-2.44-6-7.92-6t-7.93,6a34,34,0,0,0-2.45,13v62.81a34,34,0,0,0,2.45,13q2.44,6,7.93,6T191.63,118.45Z"/><path class="cls-1" d="M251.48,126.15a24.2,24.2,0,0,1-10-8.29,20.11,20.11,0,0,1-3.55-11.49,16,16,0,0,1,7.63-13.85,13,13,0,0,1,6.74-2q4.74,0,7.26,2.89a9.94,9.94,0,0,1,2.52,6.74q0,5.92-6.37,9.19a6.14,6.14,0,0,0-4.45,6.22q0,3.41,3.78,6.15t10.74,2.74q8.45,0,11-8.15t2.59-22.22a97.07,97.07,0,0,0-1.18-17q-1.2-6.28-4.3-9.4T265,64.59a14.94,14.94,0,0,0-6.67,2,25.23,25.23,0,0,0-7,5.48,17.44,17.44,0,0,0-4.23,7.63h-3.85v-57l3-1.93a38.32,38.32,0,0,0,20.45,5.63,47,47,0,0,0,12.81-2A46,46,0,0,0,291.85,19l2.67,2.67a48,48,0,0,1-19.78,17.26,59.83,59.83,0,0,1-25.55,5.56V67.56l.89.29a25.85,25.85,0,0,1,8.59-6.07A26.66,26.66,0,0,1,269,59.85,37.35,37.35,0,0,1,287,64a29.08,29.08,0,0,1,11.92,11.85,36.37,36.37,0,0,1,4.22,17.78,35,35,0,0,1-5,18.89,33.46,33.46,0,0,1-13.48,12.37,39.89,39.89,0,0,1-18.38,4.3A34.13,34.13,0,0,1,251.48,126.15Z"/><path class="cls-1" d="M315,152.3q13.17-10.52,18.29-20.3t5.11-23.55V66.37q0-13.77-5.11-23.55T315,22.52l2.37-3.85q20,12.74,30.59,30.07a72.73,72.73,0,0,1,10.59,38.67,72.73,72.73,0,0,1-10.59,38.67q-10.59,17.33-30.59,30.07Z"/><path class="cls-1" d="M393.56,125.93a31.64,31.64,0,0,1-12.89-9.41,22.27,22.27,0,0,1-5-14.44,23.75,23.75,0,0,1,5.48-15.85,33.28,33.28,0,0,1,12.44-9.49v-.29q-15.86-9.35-15.85-26.82a27.48,27.48,0,0,1,5.11-16.74,31.71,31.71,0,0,1,13-10.44A40,40,0,0,1,412.15,19q9.78,0,16.37,3.71a24,24,0,0,1,9.63,9.18,21.93,21.93,0,0,1,3,10.67A21.61,21.61,0,0,1,436.52,56a32.67,32.67,0,0,1-11,9.34v.59l2.81,1.48a35,35,0,0,1,13.78,11.7,26.41,26.41,0,0,1,5,15,36.73,36.73,0,0,1-4.3,17.63,31.68,31.68,0,0,1-12.74,12.74q-8.44,4.74-20.3,4.74A42.32,42.32,0,0,1,393.56,125.93ZM425.34,122a19.51,19.51,0,0,0,7.78-6.44,15,15,0,0,0,2.74-8.59,13.54,13.54,0,0,0-3.71-9.78,34.87,34.87,0,0,0-9.63-6.82L397.93,78.23a25.79,25.79,0,0,0-9,7.77c-2.07,3-3.11,7.58-3.11,13.71q0,9.48,4.82,15a24.69,24.69,0,0,0,11.26,7.63,38.88,38.88,0,0,0,11.92,2.08A26.16,26.16,0,0,0,425.34,122Zm5.33-66.37a23.69,23.69,0,0,0,3.41-12.37A17.92,17.92,0,0,0,431,32.74,20.16,20.16,0,0,0,423,26a22.65,22.65,0,0,0-9.85-2.29,30,30,0,0,0-14.89,3.85q-6.89,3.86-6.89,12.15,0,5.92,2.67,9a23.92,23.92,0,0,0,7.85,5.63l19.41,9.34A18.75,18.75,0,0,0,430.67,55.63Z"/><path class="cls-1" d="M478.15,126.15a24.2,24.2,0,0,1-10-8.29,20.11,20.11,0,0,1-3.55-11.49,16,16,0,0,1,7.63-13.85,13,13,0,0,1,6.74-2q4.74,0,7.26,2.89a10,10,0,0,1,2.51,6.74q0,5.92-6.37,9.19a6.14,6.14,0,0,0-4.44,6.22q0,3.41,3.78,6.15t10.74,2.74q8.44,0,11-8.15t2.59-22.22a95.94,95.94,0,0,0-1.19-17q-1.18-6.28-4.29-9.4t-8.89-3.12a14.94,14.94,0,0,0-6.67,2,25.42,25.42,0,0,0-7,5.48,17.51,17.51,0,0,0-4.22,7.63h-3.85v-57l3-1.93a38.32,38.32,0,0,0,20.45,5.63,47,47,0,0,0,12.81-2A46,46,0,0,0,518.52,19l2.67,2.67a48.06,48.06,0,0,1-19.78,17.26,59.83,59.83,0,0,1-25.55,5.56V67.56l.88.29a25.89,25.89,0,0,1,8.6-6.07,26.66,26.66,0,0,1,10.37-1.93A37.28,37.28,0,0,1,513.63,64a29,29,0,0,1,11.93,11.85,36.37,36.37,0,0,1,4.22,17.78,35,35,0,0,1-5,18.89,33.49,33.49,0,0,1-13.49,12.37,39.85,39.85,0,0,1-18.37,4.3A34.13,34.13,0,0,1,478.15,126.15Z"/><path class="cls-1" d="M557,122.08h10.67a3.71,3.71,0,0,0,2.81-.82,4,4,0,0,0,.74-2.74v-81H557V32.15h5.48a26.32,26.32,0,0,0,12.08-2.82,14.57,14.57,0,0,0,7.48-8h11.11v97.19a3,3,0,0,0,3.56,3.56h10.66v4.74H557Z"/><path class="cls-1" d="M633.49,96V80.89h38.22V96Z"/><path class="cls-1" d="M697.78,122.08h10.67a3.71,3.71,0,0,0,2.81-.82,4,4,0,0,0,.75-2.74v-81H697.78V32.15h5.48a26.29,26.29,0,0,0,12.08-2.82,14.53,14.53,0,0,0,7.48-8h11.11v97.19a3,3,0,0,0,3.56,3.56h10.67v4.74H697.78Z"/><path class="cls-1" d="M788.15,122.08h14.23a3.71,3.71,0,0,0,2.81-.82,4,4,0,0,0,.74-2.74V96.6H773.34V91.11l39-69.92h15.56V91.26h16V96.6h-16v21.92a3,3,0,0,0,3.55,3.56h10.67v4.74H788.15Zm-7.4-30.82h25.18v-45Z"/><path class="cls-1" d="M874.08,122.08H888.3a3.75,3.75,0,0,0,2.82-.82,4,4,0,0,0,.74-2.74V96.6h-32.6V91.11l39-69.92h15.56V91.26h16V96.6h-16v21.92a3,3,0,0,0,3.55,3.56H928v4.74H874.08Zm-7.41-30.82h25.19v-45Z"/><path class="cls-1" d="M963.93,125.93A31.71,31.71,0,0,1,951,116.52a22.27,22.27,0,0,1-5-14.44,23.8,23.8,0,0,1,5.48-15.85A33.23,33.23,0,0,1,964,76.74v-.29q-15.85-9.35-15.86-26.82a27.55,27.55,0,0,1,5.11-16.74,31.77,31.77,0,0,1,13-10.44A40,40,0,0,1,982.53,19q9.76,0,16.37,3.71a24.18,24.18,0,0,1,9.63,9.18,22,22,0,0,1,3,10.67A21.6,21.6,0,0,1,1006.9,56a32.7,32.7,0,0,1-11,9.34v.59l2.81,1.48a35,35,0,0,1,13.78,11.7,26.41,26.41,0,0,1,5,15,36.62,36.62,0,0,1-4.3,17.63,31.62,31.62,0,0,1-12.74,12.74q-8.44,4.74-20.3,4.74A42.32,42.32,0,0,1,963.93,125.93ZM995.71,122a19.44,19.44,0,0,0,7.78-6.44,14.9,14.9,0,0,0,2.74-8.59,13.58,13.58,0,0,0-3.7-9.78,35,35,0,0,0-9.63-6.82L968.3,78.23a25.67,25.67,0,0,0-9,7.77c-2.08,3-3.12,7.58-3.12,13.71q0,9.48,4.82,15a24.74,24.74,0,0,0,11.26,7.63,38.94,38.94,0,0,0,11.93,2.08A26.14,26.14,0,0,0,995.71,122ZM1001,55.63a23.59,23.59,0,0,0,3.41-12.37,17.85,17.85,0,0,0-3.11-10.52A20.09,20.09,0,0,0,993.41,26a22.65,22.65,0,0,0-9.85-2.29,30,30,0,0,0-14.89,3.85q-6.88,3.86-6.89,12.15,0,5.92,2.67,9a23.92,23.92,0,0,0,7.85,5.63l19.41,9.34A18.75,18.75,0,0,0,1001,55.63Z"/></svg>